<svg xmlns="http://www.w3.org/2000/svg" width="146" height="182" viewBox="0 0 146 182">
<g>
<path d="M 84.00 174.93 C75.88,176.25 71.37,176.16 62.50,174.53 C48.03,171.88 38.31,166.51 26.40,154.60 C20.05,148.25 17.41,144.67 14.13,138.00 C7.31,124.10 7.04,121.49 7.02,70.75 L 7.00 26.00 L 30.50 26.00 C43.42,26.00 54.00,26.34 54.00,26.75 C53.99,27.16 52.88,30.20 51.52,33.50 C47.64,42.91 48.60,50.50 54.14,54.39 L 56.30 55.90 L 53.15 59.49 C51.41,61.46 48.76,65.42 47.25,68.29 C44.76,73.01 44.50,74.48 44.50,84.00 C44.50,96.71 46.96,105.04 56.15,123.45 C65.18,141.55 73.45,152.19 77.31,150.71 C78.06,150.42 79.20,147.07 79.91,143.10 C80.61,139.19 81.48,136.00 81.84,136.00 C82.20,136.00 83.93,137.69 85.67,139.75 C88.02,142.53 88.97,143.11 89.35,142.00 C96.16,122.05 102.28,101.39 103.57,93.97 C106.28,78.40 104.57,68.07 97.90,59.74 L 94.88 55.97 L 97.12 52.83 C100.84,47.61 100.86,40.42 97.17,32.55 L 94.11 26.00 L 141.00 26.00 L 140.98 71.25 C140.96,122.44 140.67,125.30 134.01,138.53 C124.23,157.97 105.75,171.42 84.00,174.93 ZM 146.00 13.72 L 146.00 182.00 L 141.95 182.00 L 143.72 178.75 C145.38,175.72 145.52,169.62 145.77,87.75 L 146.00 13.72 Z" fill="rgb(23,28,75)"/>
<path d="M 0.00 0.00 L 0.06 0.00 L 0.08 182.00 L 0.00 182.00 Z" fill="rgb(106,108,130)"/>
<path d="M 0.11 182.00 L 0.08 182.00 L 0.06 0.00 L 0.08 0.00 Z" fill="rgb(185,189,208)"/>
<path d="M 0.10 91.00 L 0.08 0.00 L 73.06 0.00 L 146.04 0.00 L 145.77 87.75 C145.52,169.62 145.38,175.72 143.72,178.75 L 141.95 182.00 L 71.03 182.00 L 0.11 182.00 L 0.10 91.00 ZM 84.00 174.93 C105.75,171.42 124.23,157.97 134.01,138.53 C140.67,125.30 140.96,122.44 140.98,71.25 L 141.00 26.00 L 117.55 26.00 L 94.11 26.00 L 97.17 32.55 C100.86,40.42 100.84,47.61 97.12,52.83 L 94.88 55.97 L 97.90 59.74 C104.57,68.07 106.28,78.40 103.57,93.97 C102.28,101.39 96.16,122.05 89.35,142.00 C88.97,143.11 88.02,142.53 85.67,139.75 C83.93,137.69 82.20,136.00 81.84,136.00 C81.48,136.00 80.61,139.19 79.91,143.10 C79.20,147.07 78.06,150.42 77.31,150.71 C73.45,152.19 65.18,141.55 56.15,123.45 C46.96,105.04 44.50,96.71 44.50,84.00 C44.50,74.48 44.76,73.01 47.25,68.29 C48.76,65.42 51.41,61.46 53.15,59.49 L 56.30 55.90 L 54.14 54.39 C48.60,50.50 47.64,42.91 51.52,33.50 C52.88,30.20 53.99,27.16 54.00,26.75 C54.00,26.34 43.42,26.00 30.50,26.00 L 7.00 26.00 L 7.02 70.75 C7.04,121.49 7.31,124.10 14.13,138.00 C17.41,144.67 20.05,148.25 26.40,154.60 C38.31,166.51 48.03,171.88 62.50,174.53 C71.37,176.16 75.88,176.25 84.00,174.93 Z" fill="rgb(254,254,254)"/>
</g>
</svg>